<?xml version="1.0" encoding="utf-8"?>
<!-- Generator: Adobe Illustrator 23.0.3, SVG Export Plug-In . SVG Version: 6.00 Build 0)  -->
<svg version="1.1" id="Capa_1" xmlns="http://www.w3.org/2000/svg" xmlns:xlink="http://www.w3.org/1999/xlink" x="0px" y="0px"
	 viewBox="0 0 500 500" style="enable-background:new 0 0 500 500;" xml:space="preserve">
<style type="text/css">
	.st0{fill:#E53935;}
	.st1{fill:#FFFFFF;}
	.st2{fill:#303C42;}
</style>
<g>
	<path class="st0" d="M469,500c-7.9,0-15.9-3-21.9-9.1l-438-438C-3,40.8-3,21.2,9.1,9.1C21.2-3,40.8-3,52.9,9.1l438,438
		c12.1,12.1,12.1,31.7,0,43.8C484.9,497,476.9,500,469,500z"/>
</g>
<g>
	<path class="st0" d="M0,469c0-7.9,3-15.9,9.1-21.9l438-438C459.2-3,478.8-3,490.9,9.1c12.1,12.1,12.1,31.7,0,43.8l-438,438
		c-12.1,12.1-31.7,12.1-43.8,0C3,484.9,0,476.9,0,469z"/>
</g>
<path class="st1" d="M469,492c-6.1,0-11.9-2.4-16.3-6.7L250,282.5L47.2,485.3c-4.3,4.3-10.1,6.7-16.3,6.7s-11.9-2.4-16.3-6.7
	C10.4,480.9,8,475.2,8,469s2.4-11.9,6.7-16.3L210.5,250h81l193.8,202.8c9,9,9,23.5,0,32.5C480.9,489.6,475.2,492,469,492z"/>
<path class="st2" d="M490.9,447.1L293.8,250h-22.6l208.4,208.4c5.8,5.8,5.8,15.4,0,21.2c-2.8,2.8-6.6,4.4-10.6,4.4
	c-4,0-7.8-1.6-10.6-4.4L261.3,282.5L250,271.2l-11.3,11.3L41.6,479.6C38.8,482.4,35,484,31,484s-7.8-1.6-10.6-4.4
	C17.6,476.8,16,473,16,469c0-4,1.6-7.8,4.4-10.6L228.8,250h-22.6L9.1,447.1C3,453.2,0,461.1,0,469c0,7.9,3,15.9,9.1,21.9
	c6.1,6.1,14,9.1,21.9,9.1c7.9,0,15.9-3,21.9-9.1L250,293.8l197.1,197.1c6.1,6.1,14,9.1,21.9,9.1c7.9,0,15.9-3,21.9-9.1
	C503,478.8,503,459.2,490.9,447.1z"/>
<path class="st2" d="M9.1,52.9L206.2,250h22.6L20.4,41.6c-5.8-5.8-5.8-15.4,0-21.2C23.2,17.6,27,16,31,16c4,0,7.8,1.6,10.6,4.4
	l197.1,197.1l11.3,11.3l11.3-11.3L458.4,20.4c2.8-2.8,6.6-4.4,10.6-4.4s7.8,1.6,10.6,4.4c2.8,2.8,4.4,6.6,4.4,10.6
	c0,4-1.6,7.8-4.4,10.6L271.2,250h22.6L490.9,52.9c6.1-6.1,9.1-14,9.1-21.9c0-7.9-3-15.9-9.1-21.9C484.9,3,476.9,0,469,0
	c-7.9,0-15.9,3-21.9,9.1L250,206.2L52.9,9.1C46.8,3,38.9,0,31,0C23.1,0,15.1,3,9.1,9.1C-3,21.2-3,40.8,9.1,52.9z"/>
</svg>
