<?xml version="1.0" encoding="utf-8"?>
<!-- Generator: Adobe Illustrator 23.0.3, SVG Export Plug-In . SVG Version: 6.00 Build 0)  -->
<svg version="1.1" id="Capa_1" xmlns="http://www.w3.org/2000/svg" xmlns:xlink="http://www.w3.org/1999/xlink" x="0px" y="0px"
	 viewBox="0 0 26.6 50" style="enable-background:new 0 0 26.6 50;" xml:space="preserve">
<style type="text/css">
	.st0{fill:#FFFFFF;}
</style>
<g>
	<path class="st0" d="M2.1,11.7c0,0.1,0,0.1,0,0.2C0.8,12.8,0,14.3,0,16v3.6c0,3.1,2.5,5.7,5.7,5.7h0.7v4.9c0,0.9,0.6,1.6,1.3,1.8
		v17.2c0,0.4,0.4,0.8,0.8,0.8s0.8-0.4,0.8-0.8V32.1h2.3c0.7,0,1.3-0.6,1.3-1.3v-1.5c0-0.6,0.5-1.1,1.1-1.1s1.1,0.5,1.1,1.1v1.5
		c0,0.7,0.6,1.3,1.3,1.3h2.3v17.2c0,0.4,0.4,0.8,0.8,0.8s0.8-0.4,0.8-0.8V32c0.8-0.2,1.3-1,1.3-1.8v-4.9c2.8-0.5,5-2.9,5-5.8V7.6
		C26.6,3.4,23.2,0,19,0h-5.4c-0.4,0-0.8,0.4-0.8,0.8s0.4,0.8,0.8,0.8H19c3.3,0,6,2.7,6,6v11.8c0,2.4-1.9,4.3-4.3,4.3h-5.3
		c-0.4,0-0.8,0.4-0.8,0.8s0.4,0.8,0.8,0.8h4.7v4.9c0,0.2-0.2,0.3-0.3,0.3h-3.1v-1.3c0-1.5-1.2-2.7-2.7-2.7s-2.7,1.2-2.7,2.7v1.3H8.2
		c-0.2,0-0.3-0.2-0.3-0.3v-4.9h0.9c0.4,0,0.8-0.4,0.8-0.8s-0.4-0.8-0.8-0.8H5.7c-2.3,0-4.1-1.8-4.1-4.1V16c0-1.9,1.6-3.5,3.5-3.5
		h5.6c1.9,0,3.4,1.5,3.4,3.4c0,1.7-1.4,3-3,3H9.4c-1,0-2-0.6-2.5-1.5l-0.3-0.6c-0.2-0.4-0.7-0.5-1.1-0.3S5,17.2,5.2,17.6l0.3,0.6
		c0.8,1.4,2.3,2.3,3.9,2.3h1.7c1.7,0,3.1-0.9,4-2.2h3.3c2.8,0,5.1-2.3,5.1-5.1v-2c0-0.4-0.4-0.8-0.8-0.8c-0.4,0-0.8,0.4-0.8,0.8v2
		c0,1.9-1.6,3.5-3.5,3.5h-2.8c0-0.3,0.1-0.5,0.1-0.8c0-2.7-2.2-5-5-5H5.1c-0.5,0-1,0.1-1.5,0.2V7.6c0-3.3,2.7-6,6-6h0.9
		c0.4,0,0.8-0.4,0.8-0.8S11,0,10.6,0H9.7C5.5,0,2.1,3.4,2.1,7.6L2.1,11.7z"/>
</g>
</svg>
