<?xml version="1.0" encoding="utf-8"?>
<!-- Generator: Adobe Illustrator 23.0.3, SVG Export Plug-In . SVG Version: 6.00 Build 0)  -->
<svg version="1.1" id="Capa_1" xmlns="http://www.w3.org/2000/svg" xmlns:xlink="http://www.w3.org/1999/xlink" x="0px" y="0px"
	 viewBox="0 0 50 50" style="enable-background:new 0 0 50 50;" xml:space="preserve">
<style type="text/css">
	.st0{fill:#FFFFFF;}
</style>
<g>
	<g>
		<path class="st0" d="M49.1,24.2h-4.2c1.8-4,1.6-7.2,0.9-9.4c-1.1-3.9-5-8.1-10.7-8.1c-1.5,0-3,0.3-4.6,0.9c-2.7,1-4.5,2.1-5.3,2.7
			c-0.8-0.6-2.6-1.7-5.3-2.7c-1.6-0.6-3.1-0.9-4.6-0.9c-5.7,0-9.6,4.2-10.7,8.1c-0.7,2.3-0.9,5.8,1.3,10.3H0.8
			c-0.4,0-0.8,0.3-0.8,0.8c0,0.4,0.3,0.8,0.8,0.8h6C7,27,7.3,27.5,7.7,27.9c4.9,7.1,15.7,14.9,17.6,15.4v0c0,0,0,0,0.1,0
			c0,0,0.1,0,0.1,0v0c1.7-0.8,12-7.5,17.4-15.4c0.5-0.7,1-1.4,1.3-2.1h5c0.4,0,0.8-0.3,0.8-0.8C50,24.5,49.6,24.2,49.1,24.2z
			 M41.5,27c-5,7.4-14.3,13.3-16.3,14.6C23.2,40.4,14,34.4,8.9,27c-0.1-0.1-0.2-0.3-0.3-0.4h7c0.3,0,0.6-0.1,0.7-0.4l3.2-6.3l5,12.8
			c0.1,0.3,0.4,0.5,0.7,0.5c0,0,0,0,0,0c0.3,0,0.6-0.2,0.7-0.6l4.4-15l2.3,7.6c0.1,0.3,0.3,0.5,0.6,0.5c0.3,0,0.6-0.1,0.8-0.3
			l1.9-2.7l1.6,2.7c0.1,0.2,0.4,0.4,0.7,0.4h4.3C42.1,26.2,41.8,26.6,41.5,27z M43.3,24.2h-4.7l-1.9-3.3c-0.1-0.2-0.4-0.4-0.7-0.4
			s-0.5,0.1-0.7,0.3l-1.6,2.4l-2.6-8.5c-0.1-0.3-0.4-0.5-0.8-0.6c-0.3,0-0.7,0.2-0.8,0.6L25.1,30l-4.8-12.3
			c-0.1-0.3-0.4-0.5-0.7-0.5c-0.3,0-0.6,0.1-0.7,0.4L15.2,25H7.7c-1.9-3.5-2.4-6.8-1.6-9.8c1-3.4,4.3-7,9.2-7c1.3,0,2.7,0.3,4.1,0.8
			c3.5,1.3,5.3,2.8,5.4,2.8c0.3,0.2,0.7,0.2,1,0c0,0,1.9-1.5,5.4-2.8c1.4-0.5,2.8-0.8,4.1-0.8c4.9,0,8.2,3.6,9.2,7
			C45.2,18,44.8,21.1,43.3,24.2z"/>
	</g>
</g>
</svg>
