<?xml version="1.0" encoding="utf-8"?>
<!-- Generator: Adobe Illustrator 23.0.3, SVG Export Plug-In . SVG Version: 6.00 Build 0)  -->
<svg version="1.1" id="Capa_1" xmlns="http://www.w3.org/2000/svg" xmlns:xlink="http://www.w3.org/1999/xlink" x="0px" y="0px"
	 viewBox="0 0 512 512" style="enable-background:new 0 0 512 512;" xml:space="preserve">
<style type="text/css">
	.st0{fill:#FFFFFF;}
</style>
<g>
	<g>
		<g>
			<path class="st0" d="M226.3,0h-160c-8.8,0-16,7.2-16,16v480c0,8.8,7.2,16,16,16h160c8.8,0,16-7.2,16-16V16
				C242.3,7.2,235.2,0,226.3,0z M210.3,480h-128v-48h80v-32h-80v-48h48v-32h-48v-48h80v-32h-80v-48h48v-32h-48v-48h80V80h-80V32h128
				V480z"/>
			<path class="st0" d="M439.1,404.8l-52.8,52.6V54.6l52.6,52.6l22.6-22.6l-80-80c-6.2-6.2-16.3-6.2-22.6,0l-80,80l22.6,22.6
				l52.8-52.6v402.9l-52.6-52.6l-22.6,22.6l80,80c6.2,6.2,16.3,6.2,22.6,0l80-80L439.1,404.8z"/>
		</g>
	</g>
</g>
</svg>
