<?xml version="1.0" encoding="iso-8859-1"?>
<!-- Generator: Adobe Illustrator 21.0.0, SVG Export Plug-In . SVG Version: 6.00 Build 0)  -->
<svg version="1.1" id="Capa_1" xmlns="http://www.w3.org/2000/svg" xmlns:xlink="http://www.w3.org/1999/xlink" x="0px" y="0px"
	 viewBox="0 0 512 512" style="enable-background:new 0 0 512 512;" xml:space="preserve">
<g>
	<g>
		<path d="M255.999,122.662c-16.288,0-29.539,13.251-29.539,29.539c0,16.287,13.25,29.539,29.539,29.539
			s29.539-13.251,29.539-29.539C285.538,135.913,272.287,122.662,255.999,122.662z M255.999,166.72
			c-8.005,0-14.519-6.514-14.519-14.519c0-8.005,6.514-14.519,14.519-14.519c8.006,0,14.519,6.514,14.519,14.519
			C270.518,160.206,264.005,166.72,255.999,166.72z"/>
	</g>
</g>
<g>
	<g>
		<path d="M364.261,45.221c-28.31-28.648-66.066-44.703-106.31-45.208c-40.757-0.518-79.234,15.015-108.469,43.716
			c-29.218,28.684-45.441,66.883-45.679,107.56c-0.301,51.276,24.991,98.932,67.656,127.482
			c11.932,7.984,21.164,20.136,25.996,34.217l17.27,50.318h-49.148c-5.772,0-10.945,3.655-12.873,9.094l-43.059,121.376
			c-1.481,4.175-0.839,8.829,1.716,12.447c2.556,3.619,6.728,5.779,11.159,5.779h268.961c4.431,0,8.602-2.161,11.159-5.779
			c2.555-3.619,3.197-8.272,1.716-12.447l-43.06-121.376c-1.929-5.44-7.102-9.095-12.873-9.095H298.9l6.208-18.089
			c1.347-3.922-0.742-8.195-4.665-9.541c-3.926-1.347-8.196,0.744-9.541,4.665l-17.504,51.001
			c-2.431,7.083-9.096,11.843-16.585,11.843c-7.489,0-14.155-4.759-16.585-11.843l-28.566-83.23
			c-5.893-17.171-17.204-32.024-31.85-41.825c-32.793-21.943-54.186-56.407-59.617-94.734h79.518
			c8.052,23.353,30.234,40.182,56.287,40.182s48.236-16.829,56.287-40.182h79.507c-5.358,37.571-26.138,71.62-57.866,93.56
			c-14.758,10.205-25.574,24.382-31.276,40.996l-1.439,4.191c-1.347,3.923,0.742,8.195,4.665,9.541
			c3.922,1.347,8.195-0.742,9.541-4.665l1.439-4.192c4.654-13.56,13.511-25.149,25.613-33.518
			c37.659-26.043,61.419-67.465,65.188-112.601c0.008-0.071,0.011-0.142,0.016-0.214c0.338-4.123,0.526-8.275,0.526-12.45
			C408.2,111.886,392.596,73.893,364.261,45.221z M284.118,403.357h5.288l62.573,62.573l2.135,6.017h-8.862l-64.388-64.387
			C282.054,406.255,283.147,404.855,284.118,403.357z M310.649,403.357h19.133l10.52,29.653L310.649,403.357z M256.812,418.202
			c3.969,0,7.804-0.742,11.377-2.077l55.823,55.821h-51.474l-63.576-68.59h20.542C235.41,412.462,245.611,418.202,256.812,418.202z
			 M213.288,443.376c-1.355-1.461-3.233-2.324-5.224-2.399c-1.983-0.066-3.929,0.643-5.39,1.997l-31.259,28.974h-11.53l0.846-2.384
			l35.817-33.199c3.042-2.82,3.222-7.571,0.403-10.613l-14.954-16.134l2.221-6.261h4.263l63.576,68.59H239.77L213.288,443.376z
			 M219.291,471.947h-25.78l13.866-12.853L219.291,471.947z M171.557,439.05l4.772-13.453l4.502,4.856L171.557,439.05z
			 M223.316,388.337h-44.4c-3.18,0-6.015,2.003-7.077,5l-5.539,15.616c-0.005,0.015-0.011,0.03-0.016,0.045l-19.116,53.887
			c-0.003,0.009-0.006,0.017-0.009,0.026l-4.98,14.037c-0.815,2.299-0.464,4.85,0.943,6.843s3.694,3.177,6.134,3.177h215.493
			c2.44,0,4.727-1.185,6.134-3.177s1.759-4.544,0.943-6.843l-29.661-83.61c-1.063-2.997-3.898-5-7.077-5h-44.778l3.437-10.013
			h53.719l42.094,118.656H124.444v-0.001l42.094-118.656h53.341L223.316,388.337z M255.999,196.715
			c-24.545,0-44.514-19.968-44.514-44.514c0-24.545,19.968-44.514,44.514-44.514c24.545,0,44.514,19.968,44.514,44.514
			C300.513,176.746,280.544,196.715,255.999,196.715z M311.419,130.497c-8.694-22.122-30.25-37.831-55.42-37.831
			c-25.17,0-46.725,15.709-55.42,37.831h-24.435c-4.148,0-7.51,3.362-7.51,7.51s3.361,7.51,7.51,7.51h20.706
			c-0.246,2.196-0.385,4.423-0.385,6.683c0,1.458,0.071,2.899,0.174,4.332h-77.743c-0.054-1.714-0.086-3.433-0.076-5.157
			c0.011-1.96,0.073-3.911,0.166-5.858h27.117c4.148,0,7.51-3.362,7.51-7.51s-3.361-7.51-7.51-7.51h-25.57
			c4.577-28.708,18.202-55.172,39.471-76.052c26.359-25.879,61.099-39.893,97.757-39.415c36.272,0.457,70.3,14.927,95.816,40.748
			c20.381,20.624,33.445,46.601,37.894,74.719H311.419z M393.109,156.532h-77.75c0.103-1.432,0.174-2.873,0.174-4.332
			c0-2.26-0.138-4.488-0.385-6.683h77.872c0.106,2.219,0.16,4.447,0.16,6.683C393.179,153.647,393.154,155.091,393.109,156.532z"/>
	</g>
</g>
<g>
</g>
<g>
</g>
<g>
</g>
<g>
</g>
<g>
</g>
<g>
</g>
<g>
</g>
<g>
</g>
<g>
</g>
<g>
</g>
<g>
</g>
<g>
</g>
<g>
</g>
<g>
</g>
<g>
</g>
</svg>
