<?xml version="1.0" encoding="utf-8"?>
<!-- Generator: Adobe Illustrator 23.0.3, SVG Export Plug-In . SVG Version: 6.00 Build 0)  -->
<svg version="1.1" id="Layer_1" xmlns="http://www.w3.org/2000/svg" xmlns:xlink="http://www.w3.org/1999/xlink" x="0px" y="0px"
	 viewBox="0 0 89.3 133" style="enable-background:new 0 0 89.3 133;" xml:space="preserve">
<style type="text/css">
	.st0{fill:#FFFFFF;}
</style>
<path class="st0" d="M52.3,36.4c-2-2-4.7-3.1-7.6-3.1s-5.6,1.1-7.6,3.1c-4.2,4.2-4.2,11,0,15.2c2.1,2,4.8,3.1,7.6,3.1
	s5.5-1.1,7.6-3.1c2-2,3.1-4.7,3.1-7.6S54.3,38.4,52.3,36.4z M44.7,37.7c1.7,0,3.2,0.6,4.4,1.8c1.2,1.2,1.9,2.8,1.9,4.5
	c0,1.6-0.7,3.3-1.9,4.5c-1.1,1.2-2.7,1.9-4.3,1.9c-1.7,0-3.3-0.7-4.6-1.9c-1.2-1.1-1.9-2.7-1.9-4.3c0-1.7,0.7-3.3,1.9-4.6
	C41.4,38.3,42.9,37.7,44.7,37.7z"/>
<path class="st0" d="M44.6,128.5c-0.8,0-1.5-0.4-1.9-1L6.7,68.1C2.3,61.1,0,52.9,0,44.6C0,20,20,0,44.6,0c24.6,0,44.6,20,44.6,44.6
	c0,8.1-2.2,16-6.3,22.9l-36.5,60C46.1,128.1,45.4,128.5,44.6,128.5L44.6,128.5z M44.6,4.4C22.4,4.4,4.4,22.4,4.4,44.6
	c0,7.4,2.1,14.7,6,21.1l34.2,56.3l34.6-56.9c3.7-6.2,5.7-13.4,5.7-20.6C84.9,22.4,66.8,4.4,44.6,4.4z"/>
<g>
	<path class="st0" d="M44.6,73c-16,0-29-13-29-29c0-16,13-29,29-29c16,0,29,13,29,29C73.6,60,60.6,73,44.6,73z M44.6,20.2
		c-13.1,0-23.8,10.7-23.8,23.8s10.7,23.8,23.8,23.8s23.8-10.7,23.8-23.8S57.8,20.2,44.6,20.2z"/>
</g>
<rect x="18" y="41.7" class="st0" width="18.8" height="4.8"/>
<rect x="17.6" y="94.6" transform="matrix(-1.836970e-16 1 -1 -1.836970e-16 141.6405 52.3731)" class="st0" width="54.1" height="4.8"/>
<rect x="53.2" y="41.7" class="st0" width="18.8" height="4.8"/>
<g>
	<path class="st0" d="M64.3,133H25c-1.2,0-2.3-1-2.3-2.3s1-2.3,2.3-2.3h39.3c1.2,0,2.3,1,2.3,2.3S65.5,133,64.3,133z"/>
</g>
</svg>
