<?xml version="1.0" encoding="utf-8"?>
<!-- Generator: Adobe Illustrator 23.0.3, SVG Export Plug-In . SVG Version: 6.00 Build 0)  -->
<svg version="1.1" id="Layer_1" xmlns="http://www.w3.org/2000/svg" xmlns:xlink="http://www.w3.org/1999/xlink" x="0px" y="0px"
	 viewBox="0 0 87.8 128.1" style="enable-background:new 0 0 87.8 128.1;" xml:space="preserve">
<style type="text/css">
	.st0{fill:#FFFFFF;}
</style>
<path class="st0" d="M84.7,26.6C79.7,10.9,62.9,0,43.9,0C24.9,0,8.1,11,3.1,26.6C1,31,0,36.7,0,44.7c0,31.8,15.5,62,42.6,83
	c0.4,0.4,0.9,0.5,1.3,0.5c0.4,0,0.8-0.1,1.4-0.4c27-21,42.5-51.3,42.5-83.1C87.8,36.6,86.8,30.9,84.7,26.6z M43.9,4.3
	C61,4.3,76.1,14,80.5,28c0,0.1,0.1,0.2,0.1,0.3l0,0c1.8,3.8,2.7,9,2.7,16.3c0,29.9-14.4,58.6-39.6,78.7C18.7,103,4.3,74.3,4.3,44.5
	c0-7.3,0.8-12.4,2.7-16.2c0.1-0.1,0.2-0.2,0.2-0.4C11.6,14,26.7,4.3,43.9,4.3z"/>
<path class="st0" d="M43.9,14.7c-15,0-27.2,12.2-27.2,27.2c0,14.2,11,26,25,27.1v53.8c0,1.2,1,2.1,2.1,2.1c1.2,0,2.1-1,2.1-2.1V69.1
	c14.1-1.1,25-13,25-27.2C71.1,26.9,58.9,14.7,43.9,14.7z M43.9,64.8c-11.7,0-21.6-9.1-22.8-20.8h16.3c-1.1-1.1-1.5-2.7-1.2-4.3H21
	C22.1,28.1,32.1,19,43.9,19c11.7,0,21.6,9.1,22.8,20.8H51.6c0.4,0.7,0.7,1.6,0.7,2.4c0,0.7-0.1,1.3-0.3,1.9h14.7
	C65.5,55.7,55.6,64.8,43.9,64.8z"/>
<path class="st0" d="M51.3,34.6c-1.9-1.9-4.6-3-7.4-3s-5.4,1.1-7.4,3c-4.1,4.1-4.1,10.7,0,14.8c2,1.9,4.7,3,7.4,3s5.3-1.1,7.4-3
	c1.9-1.9,3-4.6,3-7.4S53.2,36.6,51.3,34.6z M43.9,35.8c1.6,0,3.2,0.6,4.3,1.7c1.2,1.2,1.8,2.7,1.8,4.4c0,1.6-0.7,3.2-1.8,4.4
	c-1.1,1.2-2.6,1.8-4.2,1.8c-1.6,0-3.2-0.6-4.4-1.8c-1.2-1.1-1.8-2.6-1.8-4.2c0-1.7,0.6-3.2,1.8-4.4C40.7,36.5,42.2,35.8,43.9,35.8z"
	/>
</svg>
