<?xml version="1.0" encoding="utf-8"?>
<!-- Generator: Adobe Illustrator 23.0.3, SVG Export Plug-In . SVG Version: 6.00 Build 0)  -->
<svg version="1.1" id="Capa_1" xmlns="http://www.w3.org/2000/svg" xmlns:xlink="http://www.w3.org/1999/xlink" x="0px" y="0px"
	 viewBox="0 0 614.3 612.6" style="enable-background:new 0 0 614.3 612.6;" xml:space="preserve">
<style type="text/css">
	.st0{fill:#303C42;}
	.st1{fill:#E53935;}
	.st2{fill:#FFFFFF;}
	.st3{fill:#F2F2F2;}
</style>
<path class="st0" d="M256,0C114.8,0,0,114.8,0,256s114.8,256,256,256s256-114.8,256-256S397.2,0,256,0z"/>
<path class="st1" d="M256,45c109.3,0,199.4,83.5,209.9,190c-15.6,3.5-55.3,10.7-115,11.3c-4.9-48.3-45.4-86.2-94.9-86.2
	s-90,37.9-94.9,86.2c-59.7-0.7-99.4-7.9-115-11.3C56.6,128.5,146.7,45,256,45z"/>
<path class="st2" d="M256,467c-116.3,0-211-94.7-211-211c0-0.5,0.1-1.1,0.1-1.6c18.3,3.9,57.7,10.4,116,11
	c4.8,48.4,45.3,86.5,95,86.5s90.1-38.1,95-86.5c58.2-0.6,97.7-7.1,116-11c0,0.5,0.1,1.1,0.1,1.6C467,372.3,372.3,467,256,467z"/>
<circle class="st0" cx="256" cy="256" r="161"/>
<g>
	<path class="st0" d="M567.4,612.6c-12,0-24.1-4.6-33.2-13.8L254.6,319.4c-18.4-18.4-18.4-48.1,0-66.5c18.4-18.4,48.1-18.4,66.5,0
		l279.5,279.5c18.4,18.4,18.4,48.1,0,66.5C591.4,608,579.4,612.6,567.4,612.6z"/>
</g>
<circle class="st3" cx="256" cy="256" r="116"/>
</svg>
