<?xml version="1.0" encoding="utf-8"?>
<!-- Generator: Adobe Illustrator 23.0.3, SVG Export Plug-In . SVG Version: 6.00 Build 0)  -->
<svg version="1.1" id="Capa_1" xmlns="http://www.w3.org/2000/svg" xmlns:xlink="http://www.w3.org/1999/xlink" x="0px" y="0px"
	 viewBox="0 0 512 512" style="enable-background:new 0 0 512 512;" xml:space="preserve">
<style type="text/css">
	.st0{fill:#FFFFFF;}
</style>
<path class="st0" d="M467,0H45C20.2,0,0,20.2,0,45v422c0,24.8,20.2,45,45,45h422c24.8,0,45-20.2,45-45V45C512,20.2,491.8,0,467,0z
	 M482,467c0,8.3-6.7,15-15,15H45c-8.3,0-15-6.7-15-15V45c0-8.3,6.7-15,15-15h422c8.3,0,15,6.7,15,15V467z"/>
<path class="st0" d="M429,119.7C378.7,81.9,318.9,62,256,62S133.3,81.9,83,119.7c-3.2,2.4-5.3,5.9-5.9,9.9
	c-0.6,3.9,0.5,7.9,2.9,11.1L159.2,246c2.9,3.9,7.4,6,12,6c3.1,0,6.3-1,9-3c22-16.5,48.3-25.3,75.8-25.3c27.6,0,53.8,8.7,75.8,25.3
	c6.6,5,16,3.6,21-3L432,140.7c2.4-3.2,3.4-7.2,2.9-11.1C434.3,125.6,432.2,122,429,119.7z M337.4,216.6
	c-20.2-12.4-42.8-19.9-66.4-22.1v-45.7c0-8.3-6.7-15-15-15s-15,6.7-15,15v45.7c-23.6,2.2-46.2,9.7-66.4,22.1L113.3,135
	c42.4-28.2,91.4-43,142.7-43s100.4,14.8,142.7,43L337.4,216.6z"/>
</svg>
